<svg xmlns="http://www.w3.org/2000/svg" viewBox="0 0 10 10"><path fill="#526831" d="M0 0h10v10H0z"/><path fill="#fff" d="M2.06 1.18v.237a.64.64 0 01-.641.64h-.241v5.885h.24c.355 0 .641.283.641.637v.242h5.882v-.242c0-.354.286-.637.64-.637h.241V2.058h-.24a.64.64 0 01-.641-.64v-.239z" stroke-width=".4" stroke="#000"/><path d="M5.459 2.84c-.237 0-.459.027-.667.084-.202.054-.391.13-.563.23a2.146 2.146 0 00-.455.35 2.052 2.052 0 00-.338.442c-.091.158-.16.329-.207.506v.002c-.048.178-.07.357-.07.54 0 .324.058.622.177.89.12.264.286.493.499.683.214.19.47.334.764.438a3.099 3.099 0 001.975-.018l.044-.042.224-.572-.03-.09-.031-.021-.097.015a1.377 1.377 0 01-.225.204 1.537 1.537 0 01-.263.153v-.002a1.465 1.465 0 01-.594.125c-.286 0-.533-.05-.745-.147a1.487 1.487 0 01-.525-.407 1.777 1.777 0 01-.32-.615 2.695 2.695 0 01-.108-.78c0-.252.037-.472.112-.666a1.39 1.39 0 01.312-.49 1.333 1.333 0 01.479-.303h.002c.186-.071.392-.106.619-.106.236 0 .45.038.644.113a1.6 1.6 0 01.502.308l.083.016.024-.012.04-.093-.189-.52-.045-.045a3.03 3.03 0 00-1.027-.17z"/></svg>