<svg viewBox="0 0 10 10" xmlns="http://www.w3.org/2000/svg"><path d="M0 0h10v10H0z" fill="#526831"/><path d="M2.624 1.913v.192a.517.517 0 0 1-.518.517h-.194v4.755h.194c.286 0 .518.229.518.515v.196h4.752v-.196c0-.286.232-.515.518-.515h.194V2.623h-.194a.517.517 0 0 1-.518-.517v-.194z" fill="#fff" stroke="#000" stroke-width=".36"/><path d="M5.459 2.84c-.237 0-.459.027-.667.084-.202.054-.391.13-.563.23a2.146 2.146 0 0 0-.455.35 2.052 2.052 0 0 0-.338.442c-.091.158-.16.329-.207.506v.002c-.048.178-.07.357-.07.54 0 .324.058.622.177.89.12.264.286.493.499.683.214.19.47.334.764.438a3.099 3.099 0 0 0 1.975-.018l.044-.042.224-.572-.03-.09-.031-.021-.097.015a1.377 1.377 0 0 1-.225.204 1.537 1.537 0 0 1-.263.153v-.002a1.465 1.465 0 0 1-.594.125c-.286 0-.533-.05-.745-.147a1.487 1.487 0 0 1-.525-.407 1.777 1.777 0 0 1-.32-.615 2.695 2.695 0 0 1-.108-.78c0-.252.037-.472.112-.666a1.39 1.39 0 0 1 .312-.49 1.333 1.333 0 0 1 .479-.303h.002c.186-.071.392-.106.619-.106.236 0 .45.038.644.113a1.6 1.6 0 0 1 .502.308l.083.016.024-.012.04-.093-.189-.52-.045-.045a3.03 3.03 0 0 0-1.027-.17z"/></svg>